<svg xmlns="http://www.w3.org/2000/svg" viewBox="0 0 560 230" role="img" aria-labelledby="t d"><title id="t">Escítala espartana</title><desc id="d">Una tira de cuero enrollada en una vara vuelve a ordenar un mensaje.</desc><rect width="560" height="230" rx="20" fill="#e6eee2"/><rect x="83" y="55" width="394" height="120" rx="28" fill="#9c633f"/><rect x="113" y="68" width="334" height="94" rx="16" fill="#c8945d"/><path d="M102 82h355M102 105h355M102 128h355M102 151h355" stroke="#f2d59f" stroke-width="4" opacity=".8"/><path d="M130 79h40v26h-40zM182 102h39v27h-39zM235 125h43v27h-43zM292 79h42v26h-42zM348 102h42v27h-42zM405 125h33v27h-33z" fill="#245b4e"/><path d="M260 37v19M260 175v20" stroke="#6f8d6a" stroke-width="5" stroke-linecap="round"/><text x="280" y="216" text-anchor="middle" font-family="sans-serif" font-size="15" fill="#245b4e">LA VARA ES LA CLAVE</text></svg>
