<svg xmlns="http://www.w3.org/2000/svg" viewBox="0 0 560 230" role="img" aria-labelledby="t d">
<title id="t">Gusano Morris y respuesta coordinada</title><desc id="d">Varios computadores muestran un incidente en la red; a la derecha un equipo de respuesta reúne alertas y coordina acciones.</desc>
<rect width="560" height="230" rx="20" fill="#e5ebf3"/><text x="32" y="45" font-family="sans-serif" font-size="20" font-weight="700" fill="#2f5060">1988 · INTERNET</text>
<g fill="#fff" stroke="#6a8796" stroke-width="4"><rect x="35" y="75" width="105" height="72" rx="10"/><rect x="171" y="75" width="105" height="72" rx="10"/><rect x="306" y="75" width="105" height="72" rx="10"/></g><g fill="#547785"><path d="M55 154h65m70 0h65m70 0h65" stroke="#547785" stroke-width="7" stroke-linecap="round"/><path d="M140 111h31m105 0h30" stroke="#879eaa" stroke-width="4" stroke-dasharray="6 4"/></g>
<g font-family="monospace" font-size="13" fill="#b45d48"><text x="48" y="107">!</text><text x="188" y="107">!</text><text x="323" y="107">!</text></g><path d="M65 121h45M201 121h45M336 121h45" stroke="#b45d48" stroke-width="5" stroke-linecap="round"/><text x="223" y="195" text-anchor="middle" font-family="sans-serif" font-size="13" fill="#48697a">PROPAGACIÓN DEL GUSANO</text>
<path d="M413 111h19m-8-8 8 8-8 8" stroke="#48697a" fill="none" stroke-width="4"/><rect x="440" y="60" width="91" height="135" rx="13" fill="#245b4e"/><text x="485" y="91" text-anchor="middle" font-family="sans-serif" font-size="16" font-weight="700" fill="#d8f980">CERT/CC</text><g fill="none" stroke="#d8f980" stroke-width="3"><path d="m455 119 7 7 10-14m-17 37 7 7 10-14"/></g><g stroke="#fff" stroke-width="3" stroke-linecap="round"><path d="M481 121h36M481 151h36"/></g>
</svg>
