<svg xmlns="http://www.w3.org/2000/svg" viewBox="0 0 560 230" role="img" aria-labelledby="t d"><title id="t">Conexión cifrada TLS</title><desc id="d">Un navegador se conecta a un servidor por una línea protegida con un candado.</desc><rect width="560" height="230" rx="20" fill="#e8effa"/><rect x="35" y="55" width="147" height="122" rx="10" fill="#fff" stroke="#6485a2" stroke-width="4"/><path d="M36 85h145" stroke="#6485a2" stroke-width="4"/><circle cx="53" cy="70" r="4" fill="#e3977c"/><circle cx="68" cy="70" r="4" fill="#e6bd66"/><path d="M76 111h66M76 130h47" stroke="#a8bfd2" stroke-width="7" stroke-linecap="round"/><path d="M184 117h192" stroke="#638ca4" stroke-width="5" stroke-dasharray="11 9"/><path d="M251 111V98a29 29 0 0 1 58 0v13" fill="none" stroke="#244f4b" stroke-width="8"/><rect x="244" y="111" width="72" height="53" rx="10" fill="#244f4b"/><circle cx="280" cy="135" r="6" fill="#d8f980"/><rect x="379" y="44" width="144" height="146" rx="12" fill="#254962"/><g fill="#9ac4cf"><rect x="396" y="62" width="110" height="23" rx="4"/><rect x="396" y="95" width="110" height="23" rx="4"/><rect x="396" y="128" width="110" height="23" rx="4"/></g><g fill="#d8f980"><circle cx="488" cy="74" r="4"/><circle cx="488" cy="107" r="4"/><circle cx="488" cy="140" r="4"/></g></svg>
